<svg id="BG" xmlns="http://www.w3.org/2000/svg" xmlns:xlink="http://www.w3.org/1999/xlink" viewBox="0 0 143.99 143.99"><defs><style>.cls-1{fill:url(#linear-gradient);}</style><linearGradient id="linear-gradient" x1="122.82" y1="-625.6" x2="21.01" y2="-523.79" gradientTransform="matrix(1, 0, 0, -1, 0.08, -502.69)" gradientUnits="userSpaceOnUse"><stop offset="0" stop-color="#7070b2"/><stop offset="1" stop-color="#3cc4ec"/></linearGradient></defs><title>amity_circl</title><path class="cls-1" d="M103.92,7.44q-1.58-.78-3.19-1.48-3.23-1.4-6.55-2.47A72,72,0,0,0,21.09,21.1h0A71.71,71.71,0,0,0,.3,65.44Q0.1,67.65,0,69.86t0,4.43A72.23,72.23,0,0,0,1.67,87.47Q2.22,90,3,92.52c0.33,1.11.69,2.22,1.07,3.32S4.83,98,5.27,99.12s0.91,2.16,1.4,3.23a71.9,71.9,0,0,0,14.42,20.6c0.56,0.56,1.14,1.11,1.71,1.65L23.26,125c0.5,0.46,1,.91,1.51,1.35L25,126.61q0.89,0.77,1.81,1.5l0.4,0.32q0.79,0.62,1.59,1.23l0.33,0.25c0.64,0.48,1.29.94,1.95,1.4l0.18,0.13c0.61,0.42,1.23.83,1.85,1.23l0.27,0.18q2.09,1.33,4.25,2.5l0.09,0a72.17,72.17,0,0,0,55.53,5.39v0a71.64,71.64,0,0,0,28.06-16.36,16.8,16.8,0,0,0-19.8-2.9v0A57.68,57.68,0,1,1,122,100.83l-0.41.72-0.06.11h0a16.81,16.81,0,0,0,2.95,19.72A71.63,71.63,0,0,0,140.8,93.31h0a72.22,72.22,0,0,0-4-52.76v0q-0.56-1.16-1.17-2.29l0-.07c-0.37-.7-0.76-1.39-1.15-2.08l-0.14-.25q-0.62-1.07-1.28-2.11l-0.1-.16c-0.4-.63-0.81-1.25-1.23-1.87l-0.26-.38q-0.68-1-1.4-2l-0.14-.18q-0.65-.88-1.33-1.73L128.19,27c-0.5-.62-1-1.24-1.53-1.85L126.54,25q-0.73-.85-1.5-1.68l-0.42-.45c-0.55-.59-1.11-1.18-1.69-1.75A72,72,0,0,0,103.92,7.44Z" transform="translate(0 -0.01)"/></svg>